<svg class="main-svg" xmlns="http://www.w3.org/2000/svg" xmlns:xlink="http://www.w3.org/1999/xlink" width="700" height="500" style="" viewBox="0 0 700 500"><rect x="0" y="0" width="700" height="500" style="fill: rgb(255, 255, 255); fill-opacity: 1;"/><defs id="defs-b78b0e"><g class="clips"><clipPath id="clipb78b0exyplot" class="plotclip"><rect width="461" height="320"/></clipPath><clipPath class="axesclip" id="clipb78b0ex"><rect x="80" y="0" width="461" height="500"/></clipPath><clipPath class="axesclip" id="clipb78b0ey"><rect x="0" y="100" width="700" height="320"/></clipPath><clipPath class="axesclip" id="clipb78b0exy"><rect x="80" y="100" width="461" height="320"/></clipPath></g><g class="gradients"/></defs><g class="bglayer"><rect class="bg" x="80" y="100" width="461" height="320" style="fill: rgb(229, 236, 246); fill-opacity: 1; stroke-width: 0;"/></g><g class="layer-below"><g class="imagelayer"/><g class="shapelayer"/></g><g class="cartesianlayer"><g class="subplot xy"><g class="layer-subplot"><g class="shapelayer"/><g class="imagelayer"/></g><g class="gridlayer"><g class="x"><path class="xgrid crisp" transform="translate(158.74,0)" d="M0,100v320" style="stroke: rgb(255, 255, 255); stroke-opacity: 1; stroke-width: 1px;"/><path class="xgrid crisp" transform="translate(237.92,0)" d="M0,100v320" style="stroke: rgb(255, 255, 255); stroke-opacity: 1; stroke-width: 1px;"/><path class="xgrid crisp" transform="translate(316.88,0)" d="M0,100v320" style="stroke: rgb(255, 255, 255); stroke-opacity: 1; stroke-width: 1px;"/><path class="xgrid crisp" transform="translate(395.84,0)" d="M0,100v320" style="stroke: rgb(255, 255, 255); stroke-opacity: 1; stroke-width: 1px;"/><path class="xgrid crisp" transform="translate(474.8,0)" d="M0,100v320" style="stroke: rgb(255, 255, 255); stroke-opacity: 1; stroke-width: 1px;"/></g><g class="y"><path class="ygrid crisp" transform="translate(0,391.24)" d="M80,0h461" style="stroke: rgb(255, 255, 255); stroke-opacity: 1; stroke-width: 1px;"/><path class="ygrid crisp" transform="translate(0,323.37)" d="M80,0h461" style="stroke: rgb(255, 255, 255); stroke-opacity: 1; stroke-width: 1px;"/><path class="ygrid crisp" transform="translate(0,255.49)" d="M80,0h461" style="stroke: rgb(255, 255, 255); stroke-opacity: 1; stroke-width: 1px;"/><path class="ygrid crisp" transform="translate(0,187.62)" d="M80,0h461" style="stroke: rgb(255, 255, 255); stroke-opacity: 1; stroke-width: 1px;"/><path class="ygrid crisp" transform="translate(0,119.75)" d="M80,0h461" style="stroke: rgb(255, 255, 255); stroke-opacity: 1; stroke-width: 1px;"/></g></g><g class="zerolinelayer"/><path class="xlines-below"/><path class="ylines-below"/><g class="overlines-below"/><g class="xaxislayer-below"/><g class="yaxislayer-below"/><g class="overaxes-below"/><g class="plot" transform="translate(80, 100)" clip-path="url('#clipb78b0exyplot')"><g class="scatterlayer mlayer"><g class="trace scatter traceec3331" style="stroke-miterlimit: 2; opacity: 1;"><g class="fills"/><g class="errorbars"/><g class="lines"><path class="js-line" d="M0,289.3L0.65,291.14L0.87,289.39L1.08,286.76L1.51,289.14L2.16,289.18L2.6,291.71L2.81,290.13L3.03,289.04L3.89,288.33L4.11,285.77L4.33,285.46L4.54,285.62L5.19,289.28L5.41,289.99L5.62,288.67L5.84,289.75L6.06,288.55L7.14,286.14L7.36,286.99L7.57,287.44L9.09,281.72L9.95,281.52L10.6,279.67L11.25,279.57L11.68,279.19L11.9,279.84L12.11,278.51L12.98,279.77L13.2,279.51L13.41,281.18L13.63,280.76L14.28,283.48L14.49,284.3L14.93,283.99L15.14,282.14L15.79,281.91L16.01,280.49L16.44,279.66L16.66,279.95L17.31,280.48L17.74,284.32L17.96,283.75L18.17,282.1L19.04,284.38L19.25,284.29L19.47,283.12L20.34,283.37L20.55,282.23L20.98,280.72L21.2,281.09L21.85,281.51L22.07,280.6L22.28,280.8L22.5,283.08L23.58,279.5L23.8,278.94L24.01,276.93L24.23,277.31L24.88,277.61L25.31,280.88L25.53,278.95L25.74,278.71L26.61,282.13L26.82,281.26L27.04,279.44L27.91,280.68L28.12,280.38L28.34,278.24L29.64,277.65L29.85,276.88L30.07,277.03L30.29,278.75L31.15,276.36L31.37,276.7L31.58,277.6L31.8,277.09L32.45,277.57L32.67,277.12L32.88,278.26L33.1,278.62L33.96,280.37L34.18,278.36L34.4,278.14L34.61,279.36L34.83,280.09L35.48,279.29L35.69,278.89L35.91,276.73L36.13,277.81L36.34,276.71L36.99,276.59L37.64,278.66L37.86,282.16L38.51,281.64L38.72,280.49L40.02,280.42L40.24,282.97L40.45,283.05L40.67,280.86L41.54,277.31L41.75,277.15L42.4,272.26L43.05,272.36L43.92,277.42L44.56,276.13L45,274.84L45.43,275.49L46.08,275.78L46.29,274.61L46.51,277.05L46.73,277.24L46.94,275.53L47.59,277.48L48.46,275.72L49.11,276.5L49.54,281.63L49.76,287.98L50.62,293.83L50.84,287.13L51.05,283.58L51.49,285.39L52.14,289.81L53,284.4L53.87,286L54.3,283.68L54.52,284.11L55.16,282.43L55.6,281.56L55.81,283.98L56.03,283.53L56.68,285.67L56.89,285.57L57.11,286.08L57.33,287.28L58.19,291.96L58.41,288.85L58.84,285.8L59.06,283.77L59.71,284.45L59.92,283.6L60.14,283.03L60.57,282.02L61.22,282.96L61.44,283.19L61.65,280.83L62.09,279.38L62.74,280.14L62.95,281.03L63.17,278.06L63.6,273.8L64.25,273.48L65.12,271.41L65.76,270.86L66.41,271.16L66.63,272.82L67.5,273.4L67.71,274.9L67.93,277.88L68.14,275.74L68.79,275.64L69.44,271.58L69.66,272.03L70.31,272.17L71.17,272.21L71.82,270.66L72.25,274.26L72.47,270.69L73.55,273.74L73.77,273.05L73.98,276.59L75.07,272.26L75.28,274.52L75.5,277.9L75.72,276.24L76.36,275.25L76.8,274.15L77.01,274.23L77.88,271.83L78.53,278.34L79.39,278.6L80.04,285.8L80.26,285.36L80.91,283.72L81.56,290.1L81.77,289.8L82.64,290.22L82.85,290.09L83.07,286.12L83.29,288.21L83.94,286.96L84.15,290.45L84.59,285.63L84.8,285.25L85.88,289L86.1,293.79L86.96,296.24L87.18,295.73L87.4,295.92L87.61,293.93L88.7,287.85L88.91,289.43L89.13,289.03L89.34,286.79L89.99,289.09L90.21,287.78L90.43,286.41L90.64,286.58L90.86,287.85L91.72,283.33L92.16,283.54L92.37,284.43L93.02,285.61L93.45,284.91L93.67,282.43L96.05,280.22L96.27,281.43L96.7,281.59L97.56,279.25L98.21,277.18L98.43,277.75L99.08,279.19L99.3,276.76L99.73,279.02L99.94,279.57L101.46,276L102.11,276.92L102.54,276.78L102.76,279.05L103.62,279.77L103.84,280.95L104.27,283.48L104.49,282.12L105.14,283.46L105.57,284.43L105.79,283.67L106,283.26L106.65,281.29L106.87,282.61L107.08,283.24L107.3,283.77L107.52,281.98L108.6,284.03L108.81,282.46L109.03,282.65L109.68,279.76L110.54,277.2L111.41,277.19L111.84,277.58L112.06,277.04L112.71,277.42L112.92,277.16L113.14,277.41L113.36,279.1L114.22,280.34L114.44,280.76L114.66,280.33L114.87,282.43L115.74,281.06L115.95,281.41L116.17,279.33L116.39,285.42L116.6,288.23L117.25,285.19L117.9,280.27L118.12,281.17L118.98,279.97L119.2,279.54L119.41,277.26L120.71,274.98L120.93,275.22L122.01,273L122.23,273.35L122.66,272.7L123.31,272.52L124.17,269.74L124.82,270.93L126.34,268.27L126.55,268.68L127.2,267.21L127.85,268.09L128.72,267.69L129.37,267.4L129.8,268.69L130.23,268.24L130.88,268.76L131.1,268.92L131.31,268.52L131.53,268L131.75,267.01L132.61,266.91L133.04,271.86L133.26,269.07L133.91,270.48L134.12,269.74L134.34,267.29L134.77,268.46L135.42,268.16L135.64,266.6L135.86,265.33L136.07,266.36L136.29,267.7L137.59,265.83L137.8,266.06L139.1,266.17L139.32,265.15L140.83,268.41L141.48,267L142.13,266.6L142.35,264.67L143.21,266.29L143.43,267.02L145.16,272.71L145.37,269.05L146.24,267.28L146.46,269.86L146.67,269.79L146.89,271.38L149.05,265.58L149.27,266.24L149.48,265.72L149.92,266.09L150.57,265.53L151,270.24L151.43,268.71L152.08,268.33L152.73,264.77L152.95,265.5L153.59,263.47L154.24,264.63L154.46,263.97L155.11,263.34L155.76,263.82L155.97,262.98L157.06,264.48L157.27,266.15L158.35,263.83L158.57,262.91L159.65,260.56L159.87,260.11L160.52,260.3L161.38,259.96L162.03,259.54L162.68,258.42L163.33,256.22L163.55,257.55L164.19,257.89L164.41,256.72L164.63,256.87L164.84,256.38L165.06,256.18L166.36,254.07L166.57,253.09L167.66,251.53L167.87,250.77L168.09,249.9L168.95,249.84L169.17,250.5L169.6,249.95L170.25,250.49L170.47,248.56L170.9,249.13L171.12,249.52L172.2,249.38L172.42,248.63L172.63,248.33L173.28,248.76L173.5,247.67L174.15,248.06L174.79,250.77L175.66,249.38L176.31,248.29L176.74,247.16L177.17,247.39L177.82,247.11L178.47,247.84L178.69,247.77L179.34,248.55L179.77,249.97L179.99,248.51L180.85,248.78L181.5,247.04L181.72,244.87L183.02,242.38L183.23,240.74L184.53,240.28L184.75,239.87L186.91,237.46L187.13,242.28L188.42,238.11L188.64,237.24L189.29,235.12L190.15,235.19L190.8,232.29L191.45,233.06L191.89,232.09L192.1,236.97L192.32,237.99L192.97,236.45L193.62,239.45L193.83,236.32L194.48,237.81L194.7,235.94L194.91,235.99L195.13,235.26L196,239.62L196.21,236.91L196.86,242.11L197.51,240.29L197.94,241.98L198.16,239.98L198.37,238.76L199.02,238.23L199.24,235.99L201.4,230.47L202.05,230.97L202.27,230.33L202.49,231.57L202.7,231.73L202.92,232.56L203.57,232.11L203.78,231.58L204,232.34L204.22,231.99L204.43,230.75L205.3,231.35L205.51,235.54L206.6,231.47L206.81,231.13L207.46,235.52L208.11,232.6L208.76,234.27L208.98,233.67L209.62,232.91L210.06,228.52L210.49,230.57L211.35,229.98L211.57,229.52L211.79,231.23L212.65,228.5L212.87,228.23L213.52,229.41L214.17,229.07L215.03,233.14L215.68,232.64L216.55,229.37L217.2,228.95L217.41,228.76L217.63,226.81L218.93,226.03L219.14,226.39L220.22,224.67L220.44,224.91L221.09,226.43L221.74,226.09L222.17,227.49L222.39,221.68L223.47,220.52L223.69,220.91L224.12,218.22L224.77,218.1L224.98,217.26L225.2,218.36L225.42,218.37L225.63,218.11L226.5,219.85L226.71,217.2L227.15,218.17L227.8,215.9L229.31,214.42L229.53,218.13L229.74,216.38L229.96,217.27L230.18,219.69L230.82,219.55L231.04,218.62L231.69,215.36L232.34,215.64L232.56,215.24L232.77,215.38L232.99,212.98L233.2,211.64L233.85,212.91L235.58,214.49L235.8,214.23L236.02,215.55L236.23,211.84L237.53,207.19L237.75,206.33L238.61,206.83L238.83,205.33L239.05,203.7L239.26,204.33L240.13,201.93L240.56,201.19L240.78,198.77L241.42,196.88L241.64,198.38L241.86,198.46L242.07,194.95L242.29,196.08L242.94,197.98L243.16,197.03L243.37,198.99L243.59,203.53L243.8,212.34L244.45,206.66L244.89,218.68L245.1,215.09L245.32,211.33L245.97,210.21L246.18,206.15L246.4,202.05L246.83,202.61L247.7,203.25L247.91,203.28L248.13,198.7L248.35,195.67L249,198.54L249.43,203.71L249.65,201.66L249.86,199.16L250.94,196.41L251.16,191.93L251.38,190.68L252.02,193.9L252.46,194.14L252.67,194.83L252.89,200.15L253.54,199.41L253.76,200.4L254.19,211.81L254.4,203.82L255.05,211.04L255.49,209.62L255.7,215.89L256.57,213.51L257,208.91L257.22,214.37L257.43,212.87L259.81,201.05L260.03,203.13L261.11,211.88L261.33,211.62L261.76,206.95L261.98,208.52L262.63,206.02L263.06,207.35L263.27,203.18L264.57,196.73L264.79,196.95L265,196.56L265.65,199.11L265.87,197.6L266.3,199.67L266.52,198.39L267.17,198.69L267.38,196.76L267.82,196.6L268.03,197.62L268.9,195.97L269.11,196.12L269.33,192.5L270.41,188.26L270.63,190.2L271.06,189.55L271.71,188.3L271.93,188.32L272.14,185.9L273.23,188.07L273.44,186.38L274.96,196.58L275.17,194.6L275.6,192.42L276.25,195.13L277.12,186.46L277.77,186.28L277.98,187.5L278.2,183.38L279.28,182.28L279.5,182.74L279.72,183.96L279.93,184.01L280.15,183.24L280.8,182.24L281.01,178.81L281.66,189.28L282.31,187.46L284.04,179.9L284.26,180.05L284.69,182.21L285.34,180.67L285.56,183.69L286.21,183.05L286.85,182.15L288.58,173.49L289.02,173.62L289.23,174.7L290.53,181.14L290.75,180.31L291.4,178.41L291.61,179.14L291.83,176.49L292.05,177.23L292.26,180.82L293.34,176.24L293.56,177.61L293.78,177.36L294.64,176.85L294.86,174.73L296.16,174.57L296.37,179.41L296.81,183.93L297.45,183.14L297.89,196.76L298.32,193.22L298.97,186.42L299.18,186.32L299.4,191.9L299.62,192.12L299.83,190.91L300.48,191.78L300.7,202.54L300.92,194.78L301.35,205.41L302,201.76L302.43,193.42L302.86,197.63L303.51,195.89L303.73,188.64L304.16,194.15L304.38,201.2L305.03,201.01L305.24,202.73L305.46,198.81L305.67,199.61L305.89,207L306.97,210.86L307.41,205.87L308.05,205.12L308.27,197.98L308.49,198.73L308.7,197.07L308.92,193.05L310.22,207.92L310.43,205.62L311.08,204.89L311.52,202.87L311.73,208.33L312.81,217.22L313.03,220.26L313.46,232.19L314.11,220.03L315.63,216.74L316.06,223.61L316.49,212.38L317.14,210.44L317.57,208.05L317.79,208.86L318.01,210.78L319.3,202.67L319.52,207.16L320.39,206.87L320.6,205.45L320.82,202.8L321.03,205.57L321.68,207.66L322.55,196.86L323.2,194.82L323.63,198.62L324.06,198.39L324.71,195.01L325.14,194.56L325.36,193.58L325.58,193.12L326.44,193.16L326.66,194.02L326.88,192.29L327.09,191.44L327.96,191.34L328.17,191.89L328.61,190.22L329.25,190.04L329.9,194.63L330.12,189.8L330.99,186.7L331.2,187.11L331.42,184.88L332.28,183.93L332.5,182.97L332.72,179.15L332.93,184.6L333.15,185.06L333.8,183.93L334.01,185.49L334.45,183.1L334.66,179.87L335.74,177.61L335.96,176.32L336.18,175.68L336.83,176.56L337.69,174.69L338.34,173.82L340.5,168.19L340.72,167.68L341.8,171.63L342.02,167.56L343.32,176.17L343.53,175.86L343.75,184.57L344.61,178.45L344.83,175.95L345.26,182.71L345.91,180.16" style="vector-effect: non-scaling-stroke; fill: none; stroke: rgb(0, 0, 255); stroke-opacity: 1; stroke-width: 3px; opacity: 1;"/></g><g class="points"/><g class="text"/></g><g class="trace scatter trace846132" style="stroke-miterlimit: 2; opacity: 1;"><g class="fills"/><g class="errorbars"/><g class="lines"><path class="js-line" d="M346.13,181.26L346.78,186.05L347.64,188.03L347.86,187.03L348.08,190.86L348.29,196.05L348.94,189.55L350.46,178.03L350.67,179.47L352.4,170.63L352.62,171.01L352.83,171.57L353.48,175.95L353.92,173.82L354.13,173.49L355.21,167.11L355.43,167.64L355.86,169.46L356.51,168.17L357.38,163.43L358.03,164.79L358.68,167.7L358.89,165.63L359.54,163.92L359.97,164.59L360.19,161.89L360.41,162.8L361.06,163.94L361.92,181.65L362.57,178.22L363,171.43L363.22,173.83L363.44,176.74L364.08,171.25L364.3,178.9L364.52,179.18L364.73,175.2L364.95,171.2L365.6,173.18L365.81,170.93L366.03,171.76L366.25,179.83L366.46,176.1L367.11,176.63L367.33,175.73L367.55,171.89L367.98,174.97L368.84,171.33L369.06,166.65L369.49,167.45L370.14,168.2L370.57,164.68L371.01,166.79L371.66,165.54L371.87,165.65L372.09,165.21L372.3,167.98L372.52,168.39L373.17,171.82L373.39,168.96L373.82,173.1L374.04,170.68L374.68,172.77L374.9,177.14L375.33,170.68L375.55,171.46L376.2,175.29L377.71,164.29L377.93,164.94L378.15,164.25L378.36,166.77L378.58,164.47L379.23,166.56L379.44,166.05L379.66,163.52L380.09,158.79L380.74,160.87L382.26,155.21L382.47,155.82L383.77,153.4L383.99,153.33L384.2,153.55L384.42,151.54L385.28,150.92L385.5,152.57L385.72,153.19L385.93,153.01L386.15,149.76L386.8,149.24L387.02,147.29L388.31,153.58L388.53,152.19L388.75,151.65L388.96,148.71L389.18,149.97L389.83,150.2L391.34,142.75L391.56,142.53L392.21,139.46L392.86,139.31L393.07,136.77L393.5,137.02L393.72,138.92L394.37,138.38L394.59,133.56L395.02,136.24L395.24,134.37L395.88,134.41L396.75,127.05L397.4,128.24L397.62,128.11L397.83,125.25L398.05,123.76L398.26,123.89L399.13,123.09L399.35,122.11L399.56,124.68L399.78,130.92L400.43,126.38L400.86,124.81L401.08,129.61L402.37,114.51L402.59,115.86L403.67,108.97L403.89,109.38L405.19,105.29L405.4,108.28L406.92,147.84L407.13,147.62L407.35,133.2L408,142.62L408.22,130.76L408.86,164.22L409.51,149.91L410.38,197.17L411.03,179.74L411.89,195.59L412.54,177.67L412.76,179.52L412.97,166.49L413.19,175.45L413.41,166.3L414.06,168.52L414.27,179.51L414.71,178.07L414.92,160.27L415.57,160.38L415.79,154.72L416,154.33L416.22,151.38L417.73,134.74L417.95,138.2L418.6,148.86L418.82,140.6L419.03,141.21L419.46,134.37L420.11,139.88L420.33,129.7L420.76,138.2L420.98,134.83L422.06,125.87L422.28,121.75L422.49,119.02L423.14,125.47L423.36,129.24L423.79,123.9L424.01,118.26L424.66,119.03L424.87,112.88L425.09,116.3L425.52,116.07L426.39,114.38L426.6,114.78L426.82,110.21L427.9,105.69L428.12,107.94L429.2,96.71L429.42,92.75L429.63,109.31L430.06,102.89L430.71,97.33L432.23,89.19L432.44,96.16L432.66,93.01L432.88,100.9L434.39,76.23L435.26,78.65L435.91,68.66L436.12,76.03L436.77,73.54L436.99,72.82L437.2,75.24L437.42,74.83L437.64,64.84L438.29,68.62L438.5,67.35L438.72,76.75L438.93,80.07L439.15,73.88L439.8,78.38L441.75,54.17L441.96,58.48L442.83,67L443.04,57.95L443.26,57.1L443.48,57.54L443.69,53.25L444.78,46.99L444.99,44.36L447.59,16L447.8,36.84L448.24,60.54L449.1,49.77L449.53,59.86L449.75,53.47L450.4,48.17L451.05,64.72L451.27,63.85L451.91,57.1L452.13,68.4L452.56,58.35L452.78,50.7L453.43,52.39L453.64,49.83L453.86,43.84L454.08,54.62L454.29,46.68L454.94,53.47L456.46,27.19L456.67,30.52L457.32,41.74L457.97,40.91L458.19,41.21L458.4,41.22L458.62,40.46L458.84,46.26L459.49,43.29L460.13,61.31L460.35,60.5L461,54.16" style="vector-effect: non-scaling-stroke; fill: none; stroke: rgb(128, 0, 128); stroke-opacity: 1; stroke-width: 3px; opacity: 1;"/></g><g class="points"/><g class="text"/></g><g class="trace scatter tracefaf5bb" style="stroke-miterlimit: 2; opacity: 1;"><g class="fills"/><g class="errorbars"/><g class="lines"><path class="js-line" d="M0,304L4.33,302.53L4.54,302.42L8.44,301.07L8.65,300.95L13.63,299.15L14.28,299.04L18.17,297.46L18.82,297.35L22.71,295.88L23.36,295.77L28.77,293.62L29.42,293.51L34.83,291.48L35.48,291.37L40.89,289.34L41.54,289.23L45.43,287.65L46.08,287.53L51.49,285.39L52.14,285.28L56.03,283.81L56.68,283.7L62.09,281.56L62.74,281.44L68.14,279.3L68.79,279.19L72.69,277.72L73.34,277.61L78.53,275.69L79.39,275.58L84.8,273.55L85.45,273.44L89.34,271.97L89.99,271.86L95.4,269.71L96.05,269.6L101.46,267.57L102.11,267.46L106,265.88L106.65,265.77L110.54,264.19L111.41,264.07L118.12,261.48L118.98,261.37L124.17,259.34L124.82,259.22L131.75,256.52L132.61,256.4L139.32,253.81L139.97,253.7L145.37,251.55L146.02,251.44L151.43,249.41L152.08,249.3L157.49,247.27L158.35,247.16L162.03,245.8L162.68,245.69L168.09,243.55L168.95,243.43L175.66,240.84L176.31,240.73L179.99,239.26L180.85,239.15L187.77,236.44L188.42,236.33L193.83,234.3L194.48,234.19L198.37,232.72L199.02,232.61L204.43,230.46L205.08,230.35L210.49,228.21L211.35,228.1L216.55,226.07L217.2,225.95L222.6,223.81L223.25,223.7L228.23,221.78L228.66,221.67L232.77,220.2L232.99,220.09L236.23,218.96L237.1,218.85L240.78,217.49L241.42,217.38L246.83,215.24L247.7,215.13L251.38,213.66L252.02,213.55L255.7,212.08L256.57,211.97L260.46,210.39L261.11,210.28L266.52,208.13L267.17,208.02L272.58,205.99L273.23,205.88L277.12,204.41L277.77,204.3L283.18,202.16L283.83,202.04L289.23,199.9L290.1,199.79L295.29,197.76L295.94,197.64L302.86,194.94L303.51,194.82L308.92,192.79L309.57,192.68L314.98,190.76L315.63,190.65L323.63,187.83L323.85,187.72L328.61,186.03L329.25,185.91L336.18,183.21L336.83,183.09L342.23,181.06L342.88,180.95L348.29,178.92L348.94,178.81L355.43,176.33L355.86,176.21L359.76,174.86L359.97,174.75L366.46,172.27L367.11,172.15L372.52,170.12L373.17,170.01L380.09,167.3L380.74,167.19L387.23,164.71L387.66,164.6L391.77,163.13L391.99,163.02L396.75,161.44L397.4,161.33L401.29,159.86L401.94,159.75L407.35,157.72L408,157.6L414.92,154.9L415.57,154.79L419.46,153.32L420.11,153.21L425.52,151.06L426.39,150.95L431.58,148.92L432.23,148.81L436.12,147.34L436.77,147.23L443.69,144.52L444.34,144.41L449.75,142.38L450.4,142.27L455.81,140.12L456.46,140.01L461,138.32" style="vector-effect: non-scaling-stroke; fill: none; stroke: rgb(255, 165, 0); stroke-opacity: 1; stroke-width: 3px; opacity: 1;"/></g><g class="points"/><g class="text"/></g></g></g><g class="overplot"/><path class="xlines-above crisp" d="M0,0" style="fill: none;"/><path class="ylines-above crisp" d="M0,0" style="fill: none;"/><g class="overlines-above"/><g class="xaxislayer-above"><g class="xtick"><text text-anchor="middle" x="0" y="433" transform="translate(158.74,0)" style="font-family: 'Open Sans', verdana, arial, sans-serif; font-size: 12px; fill: rgb(42, 63, 95); fill-opacity: 1; white-space: pre;">2016</text></g><g class="xtick"><text text-anchor="middle" x="0" y="433" transform="translate(237.92,0)" style="font-family: 'Open Sans', verdana, arial, sans-serif; font-size: 12px; fill: rgb(42, 63, 95); fill-opacity: 1; white-space: pre;">2017</text></g><g class="xtick"><text text-anchor="middle" x="0" y="433" transform="translate(316.88,0)" style="font-family: 'Open Sans', verdana, arial, sans-serif; font-size: 12px; fill: rgb(42, 63, 95); fill-opacity: 1; white-space: pre;">2018</text></g><g class="xtick"><text text-anchor="middle" x="0" y="433" transform="translate(395.84,0)" style="font-family: 'Open Sans', verdana, arial, sans-serif; font-size: 12px; fill: rgb(42, 63, 95); fill-opacity: 1; white-space: pre;">2019</text></g><g class="xtick"><text text-anchor="middle" x="0" y="433" transform="translate(474.8,0)" style="font-family: 'Open Sans', verdana, arial, sans-serif; font-size: 12px; fill: rgb(42, 63, 95); fill-opacity: 1; white-space: pre;">2020</text></g></g><g class="yaxislayer-above"><g class="ytick"><text text-anchor="end" x="79" y="4.199999999999999" transform="translate(0,391.24)" style="font-family: 'Open Sans', verdana, arial, sans-serif; font-size: 12px; fill: rgb(42, 63, 95); fill-opacity: 1; white-space: pre;">100</text></g><g class="ytick"><text text-anchor="end" x="79" y="4.199999999999999" transform="translate(0,323.37)" style="font-family: 'Open Sans', verdana, arial, sans-serif; font-size: 12px; fill: rgb(42, 63, 95); fill-opacity: 1; white-space: pre;">150</text></g><g class="ytick"><text text-anchor="end" x="79" y="4.199999999999999" transform="translate(0,255.49)" style="font-family: 'Open Sans', verdana, arial, sans-serif; font-size: 12px; fill: rgb(42, 63, 95); fill-opacity: 1; white-space: pre;">200</text></g><g class="ytick"><text text-anchor="end" x="79" y="4.199999999999999" transform="translate(0,187.62)" style="font-family: 'Open Sans', verdana, arial, sans-serif; font-size: 12px; fill: rgb(42, 63, 95); fill-opacity: 1; white-space: pre;">250</text></g><g class="ytick"><text text-anchor="end" x="79" y="4.199999999999999" transform="translate(0,119.75)" style="font-family: 'Open Sans', verdana, arial, sans-serif; font-size: 12px; fill: rgb(42, 63, 95); fill-opacity: 1; white-space: pre;">300</text></g></g><g class="overaxes-above"/></g></g><g class="polarlayer"/><g class="ternarylayer"/><g class="geolayer"/><g class="funnelarealayer"/><g class="pielayer"/><g class="treemaplayer"/><g class="sunburstlayer"/><g class="glimages"/><defs id="topdefs-b78b0e"><g class="clips"/><clipPath id="legendb78b0e"><rect width="138" height="67" x="0" y="0"/></clipPath></defs><g class="layer-above"><g class="imagelayer"/><g class="shapelayer"/></g><g class="infolayer"><g class="legend" pointer-events="all" transform="translate(550.22, 100)"><rect class="bg" shape-rendering="crispEdges" style="stroke: rgb(68, 68, 68); stroke-opacity: 1; fill: rgb(255, 255, 255); fill-opacity: 1; stroke-width: 0px;" width="138" height="67" x="0" y="0"/><g class="scrollbox" transform="translate(0, 0)" clip-path="url('#legendb78b0e')"><g class="groups"><g class="traces" transform="translate(0, 14.5)" style="opacity: 1;"><text class="legendtext" text-anchor="start" x="40" y="4.680000000000001" style="font-family: 'Open Sans', verdana, arial, sans-serif; font-size: 12px; fill: rgb(42, 63, 95); fill-opacity: 1; white-space: pre;">Train Close</text><g class="layers" style="opacity: 1;"><g class="legendfill"/><g class="legendlines"><path class="js-line" d="M5,0h30" style="fill: none; stroke: rgb(0, 0, 255); stroke-opacity: 1; stroke-width: 3px;"/></g><g class="legendsymbols"><g class="legendpoints"/></g></g><rect class="legendtoggle" x="0" y="-9.5" width="132.46875" height="19" style="fill: rgb(0, 0, 0); fill-opacity: 0;"/></g><g class="traces" transform="translate(0, 33.5)" style="opacity: 1;"><text class="legendtext" text-anchor="start" x="40" y="4.680000000000001" style="font-family: 'Open Sans', verdana, arial, sans-serif; font-size: 12px; fill: rgb(42, 63, 95); fill-opacity: 1; white-space: pre;">Test Close</text><g class="layers" style="opacity: 1;"><g class="legendfill"/><g class="legendlines"><path class="js-line" d="M5,0h30" style="fill: none; stroke: rgb(128, 0, 128); stroke-opacity: 1; stroke-width: 3px;"/></g><g class="legendsymbols"><g class="legendpoints"/></g></g><rect class="legendtoggle" x="0" y="-9.5" width="132.46875" height="19" style="fill: rgb(0, 0, 0); fill-opacity: 0;"/></g><g class="traces" transform="translate(0, 52.5)" style="opacity: 1;"><text class="legendtext" text-anchor="start" x="40" y="4.680000000000001" style="font-family: 'Open Sans', verdana, arial, sans-serif; font-size: 12px; fill: rgb(42, 63, 95); fill-opacity: 1; white-space: pre;">Predicted Close</text><g class="layers" style="opacity: 1;"><g class="legendfill"/><g class="legendlines"><path class="js-line" d="M5,0h30" style="fill: none; stroke: rgb(255, 165, 0); stroke-opacity: 1; stroke-width: 3px;"/></g><g class="legendsymbols"><g class="legendpoints"/></g></g><rect class="legendtoggle" x="0" y="-9.5" width="132.46875" height="19" style="fill: rgb(0, 0, 0); fill-opacity: 0;"/></g></g></g><rect class="scrollbar" rx="20" ry="3" width="0" height="0" style="fill: rgb(128, 139, 164); fill-opacity: 1;" x="0" y="0"/></g><g class="g-gtitle"/><g class="g-xtitle"/><g class="g-ytitle"/></g></svg>